<?xml version="1.0" encoding="UTF-8"?>
<svg width="185px" height="22px" viewBox="0 0 185 22" version="1.1" xmlns="http://www.w3.org/2000/svg" xmlns:xlink="http://www.w3.org/1999/xlink">
    <title>Musopen_logo</title>
    <g id="Musopen_logo" stroke="none" fill="none" fill-rule="evenodd" stroke-width="1">
        <g id="Group" fill="#FFFFFF">
            <path d="M34.98,21.285 L34.98,16.285 C34.98,14.219 35.01,12.335 35.098,10.718 C34.3495361,12.564505 33.5529307,14.3911289 32.709,16.196 L29.995,22.005 L27.279,16.196 C26.4363434,14.3904116 25.6394227,12.5638292 24.889,10.718 C24.978,12.335 25.009,14.219 25.009,16.285 L25.009,21.285 L19.638,21.285 L19.638,0.33 L24.889,0.33 L27.428,5.927 C28.666,8.622 29.7,11.077 30.024,12.245 C30.378,11.047 31.322,8.772 32.621,5.927 L35.158,0.33 L40.351,0.33 L40.351,21.285 L34.981,21.285 L34.98,21.285 Z M56.806,21.615 C51.612,21.615 47.806,18.981 47.806,12.335 L47.806,0.33 L53.648,0.33 L53.648,12.335 C53.648,14.909 54.651,16.496 56.895,16.496 C59.135,16.496 60.081,14.909 60.081,12.336 L60.081,0.33 L65.921,0.33 L65.921,12.335 C65.921,18.981 61.997,21.615 56.806,21.615 L56.806,21.615 Z M80.793,21.615 C77.458,21.615 74.242,20.508 72.088,19.071 L74.861,14.521 C76.367,15.569 78.993,16.615 80.911,16.615 C82.945,16.615 83.596,16.257 83.596,15.268 C83.596,14.489 82.858,14.011 80.085,13.352 C75.097,12.185 72.708,10.808 72.708,6.617 C72.708,2.665 75.865,0 80.85,0 C84.361,0 86.9,0.869 89.083,2.425 L86.31,6.975 C84.48,5.72 82.65,5 80.557,5 C78.845,5 78.432,5.54 78.432,6.288 C78.432,7.068 79.169,7.426 81.825,8.055 C87.017,9.313 89.319,10.928 89.319,14.851 C89.319,19.64 85.749,21.616 80.793,21.616 L80.793,21.615 Z M0,21.435 L0,0.406 L2.924,0.406 L2.924,21.435 L0,21.435 Z M5.475,21.435 L5.475,0.406 L6.205,0.406 L6.205,21.435 L5.475,21.435 Z M9.04,8.382 C9.04,7.782 9.519,7.297 10.11,7.297 C10.701,7.297 11.18,7.783 11.18,8.382 C11.18,8.982 10.701,9.468 10.11,9.468 C9.519,9.468 9.04,8.982 9.04,8.382 Z M9.04,13.458 C9.04,12.858 9.519,12.374 10.11,12.374 C10.701,12.374 11.18,12.858 11.18,13.458 C11.18,14.058 10.701,14.543 10.11,14.543 C9.519,14.543 9.04,14.058 9.04,13.458 Z" id="Shape" fill-rule="nonzero"></path>
            <path d="M104.833,21.615 C99.227,21.615 95.303,17.815 95.303,10.837 C95.303,3.862 99.286,0 104.89,0 C110.497,0 114.42,3.803 114.42,10.779 C114.42,17.753 110.436,21.615 104.832,21.615 M104.832,5.059 C107.134,5.059 108.49,7.066 108.49,10.837 C108.49,14.609 107.192,16.555 104.89,16.555 C102.588,16.555 101.233,14.549 101.233,10.779 C101.233,7.006 102.531,5.059 104.833,5.059 L104.832,5.059 Z M128.937,14.489 L126.076,14.489 L126.076,21.285 L120.441,21.285 L120.441,0.33 L129.321,0.33 C134.161,0.33 137.375,2.215 137.375,7.276 C137.375,12.604 133.895,14.49 128.937,14.49 L128.937,14.489 Z M129.173,5.059 L126.076,5.059 L126.076,9.759 L129.085,9.759 C130.945,9.759 131.682,8.951 131.682,7.365 C131.682,5.988 131.004,5.058 129.173,5.058 L129.173,5.059 Z M143.375,21.285 L143.375,0.33 L159.19,0.33 L159.19,5.209 L149.04,5.209 L149.04,7.994 L155.148,7.994 L155.148,12.814 L149.04,12.814 L149.04,16.406 L159.397,16.406 L159.397,21.285 L143.375,21.285 L143.375,21.285 Z M180.148,21.285 L175.222,14.37 C174.307,13.083 172.536,10.388 172.006,9.46 C172.154,10.388 172.183,13.172 172.183,14.88 L172.183,21.285 L166.695,21.285 L166.695,0.33 L171.741,0.33 L176.285,6.526 C177.227,7.814 179.058,10.597 179.499,11.466 C179.352,10.538 179.323,7.754 179.323,6.046 L179.323,0.33 L184.811,0.33 L184.811,21.285 L180.148,21.285 L180.148,21.285 Z" id="Shape"></path>
        </g>
    </g>
</svg>